<?xml version="1.0" encoding="UTF-8"?>
<svg id="Layer_1" data-name="Layer 1" xmlns="http://www.w3.org/2000/svg" viewBox="0 0 727.61 798.58">
  <defs>
    <style>
      .cls-1 {
        fill: #86c544;
      }
    </style>
  </defs>
  <path class="cls-1" d="M445.54,450.71c30.91-24.43,30.91-71.99,0-97.19-43.99-36.46-92.25-67.45-143.73-92.3-35.54-16.97-75.21,6.68-80.88,47.05-8.76,61.71-10.3,123.93-4.64,183.06,3.86,40.88,43.01,65.31,79.07,49.62,53.87-23.14,104.38-53.41,150.16-89.99v-.26Zm231.04-179.72c67.85,74.13,68.07,187.61,.52,262-116.42,128.26-268.52,218.94-436.84,260.46-89.49,22.36-180.57-30.39-205.54-119.04C-16.03,501.37-8.56,305.7,40.38,131.89,66.13,40.62,152.16-16.72,240.77,4.37c164.07,39.08,318.1,139.61,435.81,266.63Z"/>
</svg>